<?xml version="1.0" encoding="UTF-8" standalone="no"?><svg xmlns="http://www.w3.org/2000/svg" xmlns:xlink="http://www.w3.org/1999/xlink" contentScriptType="application/ecmascript" contentStyleType="text/css" height="230px" preserveAspectRatio="none" style="width:243px;height:230px;" version="1.1" viewBox="0 0 243 230" width="243px" zoomAndPan="magnify"><defs><filter height="300%" id="f8g1cwhxnlai7" width="300%" x="-1" y="-1"><feGaussianBlur result="blurOut" stdDeviation="2.0"/><feColorMatrix in="blurOut" result="blurOut2" type="matrix" values="0 0 0 0 0 0 0 0 0 0 0 0 0 0 0 0 0 0 .4 0"/><feOffset dx="4.0" dy="4.0" in="blurOut2" result="blurOut3"/><feBlend in="SourceGraphic" in2="blurOut3" mode="normal"/></filter></defs><g><!--MD5=[8d10b9619f233caeee54837354dd5717]
class Cat--><rect fill="#FEFECE" filter="url(#f8g1cwhxnlai7)" height="60.8047" id="Cat" style="stroke: #A80036; stroke-width: 1.5;" width="68" x="6" y="20.5"/><ellipse cx="27.75" cy="36.5" fill="#ADD1B2" rx="11" ry="11" style="stroke: #A80036; stroke-width: 1.0;"/><path d="M30.7188,42.1406 Q30.1406,42.4375 29.5,42.5781 Q28.8594,42.7344 28.1563,42.7344 Q25.6563,42.7344 24.3281,41.0938 Q23.0156,39.4375 23.0156,36.3125 Q23.0156,33.1875 24.3281,31.5313 Q25.6563,29.875 28.1563,29.875 Q28.8594,29.875 29.5,30.0313 Q30.1563,30.1875 30.7188,30.4844 L30.7188,33.2031 Q30.0938,32.625 29.5,32.3594 Q28.9063,32.0781 28.2813,32.0781 Q26.9375,32.0781 26.25,33.1563 Q25.5625,34.2188 25.5625,36.3125 Q25.5625,38.4063 26.25,39.4844 Q26.9375,40.5469 28.2813,40.5469 Q28.9063,40.5469 29.5,40.2813 Q30.0938,40 30.7188,39.4219 L30.7188,42.1406 Z "/><text fill="#000000" font-family="sans-serif" font-size="12" lengthAdjust="spacingAndGlyphs" textLength="21" x="43.25" y="40.6543">Cat</text><line style="stroke: #A80036; stroke-width: 1.5;" x1="7" x2="73" y1="52.5" y2="52.5"/><line style="stroke: #A80036; stroke-width: 1.5;" x1="7" x2="73" y1="60.5" y2="60.5"/><ellipse cx="17" cy="71.5" fill="#84BE84" rx="3" ry="3" style="stroke: #038048; stroke-width: 1.0;"/><text fill="#000000" font-family="sans-serif" font-size="11" lengthAdjust="spacingAndGlyphs" textLength="42" x="26" y="74.7104">meow()</text><!--MD5=[454ed48f055567edc734f170f61b4daf]
class Dog--><rect fill="#FEFECE" filter="url(#f8g1cwhxnlai7)" height="48" id="Dog" style="stroke: #A80036; stroke-width: 1.5;" width="57" x="11.5" y="171"/><ellipse cx="26.5" cy="187" fill="#ADD1B2" rx="11" ry="11" style="stroke: #A80036; stroke-width: 1.0;"/><path d="M29.4688,192.6406 Q28.8906,192.9375 28.25,193.0781 Q27.6094,193.2344 26.9063,193.2344 Q24.4063,193.2344 23.0781,191.5938 Q21.7656,189.9375 21.7656,186.8125 Q21.7656,183.6875 23.0781,182.0313 Q24.4063,180.375 26.9063,180.375 Q27.6094,180.375 28.25,180.5313 Q28.9063,180.6875 29.4688,180.9844 L29.4688,183.7031 Q28.8438,183.125 28.25,182.8594 Q27.6563,182.5781 27.0313,182.5781 Q25.6875,182.5781 25,183.6563 Q24.3125,184.7188 24.3125,186.8125 Q24.3125,188.9063 25,189.9844 Q25.6875,191.0469 27.0313,191.0469 Q27.6563,191.0469 28.25,190.7813 Q28.8438,190.5 29.4688,189.9219 L29.4688,192.6406 Z "/><text fill="#000000" font-family="sans-serif" font-size="12" lengthAdjust="spacingAndGlyphs" textLength="25" x="40.5" y="191.1543">Dog</text><line style="stroke: #A80036; stroke-width: 1.5;" x1="12.5" x2="67.5" y1="203" y2="203"/><line style="stroke: #A80036; stroke-width: 1.5;" x1="12.5" x2="67.5" y1="211" y2="211"/><path d="M109,8 L109,47 L74.02,51 L109,55 L109,93.6641 A0,0 0 0 0 109,93.6641 L231,93.6641 A0,0 0 0 0 231,93.6641 L231,18 L221,8 L109,8 A0,0 0 0 0 109,8 " fill="#FBFB77" filter="url(#f8g1cwhxnlai7)" style="stroke: #A80036; stroke-width: 1.0;"/><path d="M221,8 L221,18 L231,18 L221,8 " fill="#FBFB77" style="stroke: #A80036; stroke-width: 1.0;"/><text fill="#000000" font-family="sans-serif" font-size="13" lengthAdjust="spacingAndGlyphs" textLength="101" x="115" y="25.0669">Responsibilities:</text><text fill="#000000" font-family="sans-serif" font-size="13" lengthAdjust="spacingAndGlyphs" textLength="70" x="115" y="40.1997">- Very cute</text><text fill="#000000" font-family="sans-serif" font-size="13" lengthAdjust="spacingAndGlyphs" textLength="0" x="119" y="55.3325"/><text fill="#000000" font-family="sans-serif" font-size="13" lengthAdjust="spacingAndGlyphs" textLength="89" x="115" y="70.4653">Collaborators:</text><text fill="#000000" font-family="sans-serif" font-size="13" lengthAdjust="spacingAndGlyphs" textLength="35" x="115" y="85.5981">- Dog</text><!--MD5=[c2cfcc9f52b9cfe5b249f6c22ae25de5]
link Cat to Dog--><path d="M40,81.77 C40,106.52 40,141.5 40,165.81 " fill="none" id="Cat-&gt;Dog" style="stroke: #A80036; stroke-width: 1.0;"/><polygon fill="#A80036" points="40,170.82,44,161.82,40,165.82,36,161.82,40,170.82" style="stroke: #A80036; stroke-width: 1.0;"/><text fill="#000000" font-family="sans-serif" font-size="13" lengthAdjust="spacingAndGlyphs" textLength="58" x="41" y="137.0669">cuteness</text><!--MD5=[69149b567d082279c430158ca27ac43d]
@startuml inline_umlgraph_1.svg
class Cat {
  + meow()
}

Cat - -> Dog : cuteness

note right of Cat
Responsibilities:
- Very cute

Collaborators:
- Dog
end note
@enduml

PlantUML version 1.2020.02(Sun Mar 01 10:22:07 UTC 2020)
(GPL source distribution)
Java Runtime: OpenJDK Runtime Environment
JVM: OpenJDK 64-Bit Server VM
Java Version: 11.0.27+6
Operating System: Linux
Default Encoding: UTF-8
Language: en
Country: null
--></g></svg>